
      <svg data-logo="logo" xmlns="http://www.w3.org/2000/svg" viewBox="0 0 249.85000610351562 42">
        <g id="logogram" transform="
    translate(0, 0.5)
    rotate(0 20.5 20.5)
    
  "><path d="M20.3018 10.27C20.3018 15.7928 15.8246 20.27 10.3018 20.27H0.301758V10.27C0.301758 4.74714 4.7789 0.269989 10.3018 0.269989C15.8246 0.269989 20.3018 4.74714 20.3018 10.27Z" fill="#17CF97"/><path d="M20.3018 30.27C20.3018 24.7471 24.7789 20.27 30.3018 20.27H40.3018V30.27C40.3018 35.7928 35.8246 40.27 30.3018 40.27C24.7789 40.27 20.3018 35.7928 20.3018 30.27Z" fill="#17CF97"/><path d="M0.301758 30.27C0.301758 35.7928 4.7789 40.27 10.3018 40.27H20.3018V30.27C20.3018 24.7471 15.8246 20.27 10.3018 20.27C4.7789 20.27 0.301758 24.7471 0.301758 30.27Z" fill="#17CF97"/><path d="M40.3018 10.27C40.3018 4.74714 35.8246 0.269989 30.3018 0.269989H20.3018V10.27C20.3018 15.7928 24.7789 20.27 30.3018 20.27C35.8246 20.27 40.3018 15.7928 40.3018 10.27Z" fill="#17CF97"/></g>
        <g id="logotype" transform="translate(47, 7.81201171875)"><path fill="#121212" d="M15.07 4.86L7.28 4.86L7.28 0.54L28.08 0.54L28.08 4.86L20.30 4.86L20.30 26L15.07 26L15.07 4.86ZM34.40 26L29.27 26L29.27 6.89L34.23 6.89L34.23 10.23L34.44 10.23Q34.97 8.45 36.20 7.54Q37.44 6.64 39.05 6.64L39.05 6.64Q39.44 6.64 39.90 6.68Q40.35 6.72 40.71 6.81L40.71 6.81L40.71 11.39Q40.37 11.27 39.72 11.20Q39.07 11.13 38.49 11.13L38.49 11.13Q37.32 11.13 36.38 11.64Q35.44 12.14 34.92 13.04Q34.40 13.93 34.40 15.13L34.40 15.13L34.40 26ZM46.58 26.38L46.58 26.38Q44.77 26.38 43.33 25.74Q41.88 25.09 41.06 23.82Q40.23 22.55 40.23 20.65L40.23 20.65Q40.23 19.06 40.82 17.98Q41.41 16.91 42.42 16.26Q43.44 15.61 44.73 15.27Q46.02 14.93 47.44 14.79L47.44 14.79Q49.10 14.62 50.11 14.47Q51.13 14.33 51.60 14.01Q52.07 13.70 52.07 13.08L52.07 13.08L52.07 12.99Q52.07 12.17 51.73 11.61Q51.39 11.05 50.72 10.75Q50.05 10.45 49.08 10.45L49.08 10.45Q48.09 10.45 47.35 10.75Q46.62 11.05 46.16 11.54Q45.70 12.04 45.47 12.65L45.47 12.65L40.77 11.87Q41.27 10.21 42.41 9.05Q43.56 7.88 45.26 7.27Q46.96 6.65 49.08 6.65L49.08 6.65Q50.63 6.65 52.09 7.02Q53.54 7.39 54.69 8.16Q55.85 8.93 56.52 10.16Q57.20 11.39 57.20 13.13L57.20 13.13L57.20 26L52.34 26L52.34 23.35L52.17 23.35Q51.71 24.24 50.94 24.91Q50.17 25.59 49.09 25.98Q48.00 26.38 46.58 26.38ZM48.04 22.77L48.04 22.77Q49.25 22.77 50.16 22.29Q51.08 21.81 51.59 20.99Q52.10 20.17 52.10 19.16L52.10 19.16L52.10 17.10Q51.88 17.27 51.42 17.40Q50.96 17.54 50.40 17.64Q49.83 17.75 49.28 17.83Q48.74 17.92 48.31 17.97L48.31 17.97Q47.37 18.10 46.65 18.41Q45.93 18.72 45.54 19.22Q45.15 19.73 45.15 20.51L45.15 20.51Q45.15 21.25 45.52 21.75Q45.90 22.26 46.54 22.51Q47.18 22.77 48.04 22.77ZM64.42 14.94L64.42 14.94L64.42 26L59.30 26L59.30 6.89L64.13 6.89L64.22 11.66L63.91 11.66Q64.66 9.27 66.19 7.96Q67.72 6.65 70.15 6.65L70.15 6.65Q72.13 6.65 73.60 7.52Q75.07 8.38 75.89 10.00Q76.71 11.61 76.71 13.85L76.71 13.85L76.71 26L71.58 26L71.58 14.74Q71.58 12.96 70.67 11.95Q69.76 10.94 68.13 10.94L68.13 10.94Q67.06 10.94 66.21 11.41Q65.36 11.88 64.89 12.77Q64.42 13.66 64.42 14.94ZM86.40 26.38L86.40 26.38Q84.09 26.38 82.32 25.72Q80.54 25.06 79.41 23.80Q78.28 22.55 77.96 20.77L77.96 20.77L82.73 19.95Q83.10 21.28 84.04 21.95Q84.98 22.62 86.55 22.62L86.55 22.62Q88.01 22.62 88.86 22.06Q89.71 21.51 89.71 20.65L89.71 20.65Q89.71 19.90 89.11 19.42Q88.50 18.94 87.25 18.69L87.25 18.69L83.96 18.00Q81.19 17.44 79.82 16.08Q78.45 14.72 78.45 12.58L78.45 12.58Q78.45 10.74 79.46 9.41Q80.47 8.09 82.26 7.37Q84.06 6.65 86.48 6.65L86.48 6.65Q88.74 6.65 90.40 7.28Q92.06 7.90 93.08 9.05Q94.11 10.19 94.45 11.75L94.45 11.75L89.90 12.55Q89.61 11.58 88.78 10.95Q87.95 10.33 86.55 10.33L86.55 10.33Q85.29 10.33 84.43 10.86Q83.58 11.39 83.58 12.26L83.58 12.26Q83.58 12.99 84.14 13.49Q84.69 13.99 86.04 14.26L86.04 14.26L89.48 14.94Q92.24 15.51 93.59 16.78Q94.94 18.05 94.94 20.10L94.94 20.10Q94.94 21.98 93.85 23.39Q92.76 24.80 90.83 25.59Q88.91 26.38 86.40 26.38ZM101.47 26.38L101.47 26.38Q99.66 26.38 98.22 25.74Q96.77 25.09 95.94 23.82Q95.11 22.55 95.11 20.65L95.11 20.65Q95.11 19.06 95.70 17.98Q96.29 16.91 97.31 16.26Q98.33 15.61 99.62 15.27Q100.91 14.93 102.33 14.79L102.33 14.79Q103.98 14.62 105.00 14.47Q106.02 14.33 106.49 14.01Q106.96 13.70 106.96 13.08L106.96 13.08L106.96 12.99Q106.96 12.17 106.61 11.61Q106.27 11.05 105.61 10.75Q104.94 10.45 103.97 10.45L103.97 10.45Q102.97 10.45 102.24 10.75Q101.50 11.05 101.04 11.54Q100.58 12.04 100.36 12.65L100.36 12.65L95.66 11.87Q96.16 10.21 97.30 9.05Q98.45 7.88 100.15 7.27Q101.85 6.65 103.97 6.65L103.97 6.65Q105.52 6.65 106.97 7.02Q108.43 7.39 109.58 8.16Q110.73 8.93 111.41 10.16Q112.08 11.39 112.08 13.13L112.08 13.13L112.08 26L107.23 26L107.23 23.35L107.06 23.35Q106.60 24.24 105.83 24.91Q105.06 25.59 103.97 25.98Q102.89 26.38 101.47 26.38ZM102.92 22.77L102.92 22.77Q104.14 22.77 105.05 22.29Q105.97 21.81 106.48 20.99Q106.99 20.17 106.99 19.16L106.99 19.16L106.99 17.10Q106.77 17.27 106.31 17.40Q105.85 17.54 105.28 17.64Q104.72 17.75 104.17 17.83Q103.62 17.92 103.20 17.97L103.20 17.97Q102.26 18.10 101.54 18.41Q100.82 18.72 100.43 19.22Q100.04 19.73 100.04 20.51L100.04 20.51Q100.04 21.25 100.41 21.75Q100.79 22.26 101.43 22.51Q102.07 22.77 102.92 22.77ZM122.73 26.38L122.73 26.38Q119.84 26.38 117.75 25.14Q115.65 23.90 114.52 21.68Q113.38 19.47 113.38 16.53L113.38 16.53Q113.38 13.56 114.52 11.35Q115.65 9.13 117.75 7.89Q119.84 6.65 122.73 6.65L122.73 6.65Q124.42 6.65 125.86 7.10Q127.29 7.54 128.40 8.36Q129.51 9.18 130.23 10.36Q130.95 11.54 131.22 13.01L131.22 13.01L126.45 13.90Q126.30 13.15 125.98 12.56Q125.65 11.97 125.19 11.55Q124.73 11.13 124.12 10.91Q123.51 10.69 122.78 10.69L122.78 10.69Q121.41 10.69 120.48 11.42Q119.55 12.16 119.08 13.47Q118.61 14.79 118.61 16.52L118.61 16.52Q118.61 18.22 119.08 19.53Q119.55 20.84 120.48 21.59Q121.41 22.34 122.78 22.34L122.78 22.34Q123.51 22.34 124.13 22.11Q124.75 21.88 125.22 21.45Q125.70 21.01 126.03 20.39Q126.35 19.78 126.49 19.01L126.49 19.01L131.26 19.88Q130.98 21.40 130.27 22.59Q129.55 23.78 128.44 24.63Q127.33 25.49 125.88 25.93Q124.44 26.38 122.73 26.38ZM130.66 6.89L141.99 6.89L141.99 10.81L130.66 10.81L130.66 6.89ZM133.29 20.86L133.29 2.35L138.41 2.35L138.41 20.41Q138.41 21.32 138.82 21.75Q139.22 22.19 140.16 22.19L140.16 22.19Q140.45 22.19 140.98 22.11Q141.51 22.04 141.78 21.97L141.78 21.97L142.52 25.81Q141.66 26.07 140.82 26.17Q139.97 26.27 139.20 26.27L139.20 26.27Q136.33 26.27 134.81 24.87Q133.29 23.47 133.29 20.86L133.29 20.86ZM153.91 26L143.16 26L143.16 0.54L153.26 0.54Q156.07 0.54 157.94 1.38Q159.81 2.23 160.74 3.70Q161.67 5.17 161.67 7.08L161.67 7.08Q161.67 8.59 161.07 9.70Q160.48 10.82 159.44 11.53Q158.41 12.24 157.09 12.55L157.09 12.55L157.09 12.81Q158.53 12.86 159.80 13.62Q161.07 14.38 161.87 15.74Q162.66 17.10 162.66 18.99L162.66 18.99Q162.66 20.99 161.67 22.58Q160.68 24.17 158.74 25.09Q156.80 26 153.91 26L153.91 26ZM148.38 14.81L148.38 21.71L152.89 21.71Q155.18 21.71 156.24 20.82Q157.30 19.93 157.30 18.50L157.30 18.50Q157.30 17.40 156.78 16.57Q156.25 15.75 155.30 15.28Q154.34 14.81 153.02 14.81L153.02 14.81L148.38 14.81ZM148.38 4.79L148.38 11.23L152.49 11.23Q153.61 11.23 154.49 10.83Q155.38 10.43 155.89 9.69Q156.39 8.94 156.39 7.92L156.39 7.92Q156.39 6.53 155.41 5.66Q154.43 4.79 152.60 4.79L152.60 4.79L148.38 4.79ZM170.51 26.24L170.51 26.24Q168.52 26.24 167.04 25.38Q165.55 24.51 164.74 22.90Q163.93 21.28 163.93 19.04L163.93 19.04L163.93 6.89L169.05 6.89L169.05 18.16Q169.05 19.93 169.98 20.94Q170.90 21.95 172.50 21.95L172.50 21.95Q173.60 21.95 174.44 21.48Q175.27 21.01 175.74 20.11Q176.21 19.22 176.21 17.95L176.21 17.95L176.21 6.89L181.34 6.89L181.34 26L176.50 26L176.44 21.23L176.73 21.23Q175.97 23.64 174.43 24.94Q172.88 26.24 170.51 26.24ZM190.43 26.32L190.43 26.32Q188.23 26.32 186.46 25.19Q184.69 24.05 183.66 21.86Q182.64 19.66 182.64 16.48L182.64 16.48Q182.64 13.22 183.70 11.03Q184.76 8.84 186.52 7.75Q188.28 6.65 190.40 6.65L190.40 6.65Q192.02 6.65 193.10 7.20Q194.17 7.75 194.84 8.55Q195.51 9.35 195.83 10.11L195.83 10.11L196.00 10.11L196.00 0.54L201.13 0.54L201.13 26L196.09 26L196.09 22.94L195.83 22.94Q195.49 23.71 194.81 24.49Q194.14 25.27 193.06 25.79Q191.99 26.32 190.43 26.32ZM192.00 22.21L192.00 22.21Q193.30 22.21 194.22 21.49Q195.15 20.77 195.63 19.48Q196.10 18.19 196.10 16.46L196.10 16.46Q196.10 14.72 195.63 13.45Q195.16 12.17 194.24 11.47Q193.32 10.76 192.00 10.76L192.00 10.76Q190.65 10.76 189.74 11.49Q188.82 12.23 188.36 13.51Q187.90 14.79 187.90 16.46L187.90 16.46Q187.90 18.14 188.37 19.44Q188.84 20.74 189.76 21.47Q190.67 22.21 192.00 22.21Z"/></g>
        
      </svg>
    